<svg width="375" height="401" viewBox="0 0 375 401" fill="none" xmlns="http://www.w3.org/2000/svg">
<defs>
<linearGradient id="paint0_linear_10_13430" x1="124.004" y1="471.036" x2="124.004" y2="-74.3472" gradientUnits="userSpaceOnUse">
<stop stop-color="#4A3092"/>
<stop offset="1" stop-color="#AC469A"/>
</linearGradient>
<linearGradient id="paint1_linear_10_13430" x1="124.21" y1="471.036" x2="124.21" y2="-74.3472" gradientUnits="userSpaceOnUse">
<stop stop-color="#4A3092"/>
<stop offset="1" stop-color="#AC469A"/>
</linearGradient>
<linearGradient id="paint2_linear_10_13430" x1="290.855" y1="471.036" x2="290.855" y2="-74.3472" gradientUnits="userSpaceOnUse">
<stop stop-color="#4A3092"/>
<stop offset="1" stop-color="#AC469A"/>
</linearGradient>
<linearGradient id="paint3_linear_10_13430" x1="319.341" y1="471.036" x2="319.341" y2="-74.3471" gradientUnits="userSpaceOnUse">
<stop stop-color="#4A3092"/>
<stop offset="1" stop-color="#AC469A"/>
</linearGradient>
<linearGradient id="paint4_linear_10_13430" x1="-42.847" y1="471.036" x2="-42.847" y2="-74.3472" gradientUnits="userSpaceOnUse">
<stop stop-color="#4A3092"/>
<stop offset="1" stop-color="#AC469A"/>
</linearGradient>
</defs>
<path d="M374.547 200.142V114.022L306.831 46.2024L124.01 229.302L-58.8102 46.2024L-126.547 114.022V200.142L-58.8102 132.322L124.01 315.421L306.831 132.322L374.547 200.142Z" fill="url(#paint0_linear_10_13430)"/>
<path d="M124.504 86.1195L181.336 143.038L224.32 99.9885L124.504 0L24.0918 100.545L67.0962 143.615L124.504 86.1195Z" fill="url(#paint1_linear_10_13430)"/>
<path d="M249.69 218.38L206.706 261.429L375 430V343.88L249.69 218.38Z" fill="url(#paint2_linear_10_13430)"/>
<path d="M263.867 204.057L374.815 315.174V229.034L306.872 160.987L263.867 204.057Z" fill="url(#paint3_linear_10_13430)"/>
<path d="M-127 343.88V430L41.3141 261.429L-1.69034 218.38L-127 343.88Z" fill="url(#paint4_linear_10_13430)"/>
</svg>
