<svg width="44" height="41" viewBox="0 0 44 41" fill="none" xmlns="http://www.w3.org/2000/svg">
<path d="M35.4693 12.6944C35.4693 14.9832 37.3895 16.9071 39.7291 16.9071C42.0246 16.9071 44 14.9832 44 12.6944C44 10.3393 42.0798 8.48178 39.7402 8.48178C37.3233 8.4265 35.4693 10.3393 35.4693 12.6944ZM21.9945 0.00116896C24.3451 0.00116896 26.2543 1.85872 26.2543 4.21383C26.2543 6.5026 24.2789 8.4265 21.9945 8.4265C19.6438 8.4265 17.7346 6.5026 17.7346 4.21383C17.7346 1.85872 19.5887 -0.0541153 21.9945 0.00116896ZM4.25984 8.4265C6.61048 8.4265 8.51969 10.284 8.51969 12.6392C8.51969 14.9279 6.54427 16.8518 4.25984 16.8518C1.9092 16.8518 0 14.9279 0 12.6392C0 10.284 1.85403 8.36015 4.25984 8.4265ZM35.4693 17.3383C35.2817 17.1504 34.9727 17.1504 34.785 17.3383L29.1016 23.0326C27.3689 21.363 25.0183 20.3126 22.4249 20.1799V12.0089C22.4249 11.7657 22.2373 11.5114 21.9283 11.5114C21.6855 11.5114 21.4317 11.6993 21.4317 12.0089V20.1799C18.8382 20.3016 16.4876 21.352 14.755 23.0326L9.07148 17.3383C8.88387 17.1504 8.57487 17.1504 8.38726 17.3383C8.19965 17.5263 8.19965 17.8359 8.38726 18.0238L14.0928 23.7181C12.4816 25.5757 11.4994 27.9308 11.4994 30.5955C11.4994 36.3561 16.1344 41 21.8841 41C27.6338 41 32.2689 36.3561 32.2689 30.5955C32.2689 27.9308 31.2756 25.5757 29.6754 23.7181L35.4693 18.0238C35.6569 17.8359 35.6569 17.5263 35.4693 17.3383ZM31.4522 30.5955C31.4522 35.8586 27.1924 40.0712 21.9945 40.0712C16.7414 40.0712 12.5367 35.8033 12.5367 30.5955C12.5367 25.3988 16.7966 21.1198 21.9945 21.1198C27.2476 21.1198 31.4522 25.3877 31.4522 30.5955ZM18.3526 27.19C18.3526 25.1445 19.9639 23.5412 21.9945 23.5412C23.9699 23.5412 25.6363 25.2108 25.6363 27.19C25.6363 29.2355 23.9699 30.8387 21.9945 30.8387C19.9639 30.9051 18.3526 29.2908 18.3526 27.19ZM19.4673 27.2453C19.4673 28.7269 20.5819 29.8436 22.0055 29.8436C23.4843 29.8436 24.5438 28.6716 24.5438 27.2453C24.5438 25.8853 23.374 24.6469 22.0055 24.6469C20.5157 24.5806 19.4673 25.7637 19.4673 27.2453ZM16.311 36.0355C16.1234 33.2491 16.8628 31.1483 18.0436 30.6508C19.5224 29.9653 21.1999 31.5132 21.3765 31.7675C21.6855 32.0771 21.8731 32.1435 22.0607 32.1435C22.1269 32.1435 22.3035 32.1435 22.7449 31.7675C22.8663 31.5243 24.5327 30.0979 26.0226 30.6508C27.1372 31.1483 27.8766 33.2491 27.689 36.0355H16.311ZM25.5811 31.7012C24.8969 31.3916 23.7933 32.1987 23.4181 32.5636C22.9215 32.9948 22.4911 33.2491 22.0607 33.2491C21.5641 33.2491 21.1337 32.9396 20.7033 32.5636C20.3281 32.254 19.2245 31.3916 18.5403 31.7012C18.165 31.8228 17.547 32.5083 17.4256 35.0404H26.5744C26.5744 32.453 25.9564 31.8339 25.5811 31.7012Z" fill="#677282"/>
</svg>
