<svg width="58" height="58" viewBox="0 0 58 58" fill="none" xmlns="http://www.w3.org/2000/svg">
<path d="M1.28889 55.4222H2.05992V21.2667C1.28889 20.6913 0.771034 19.7821 0.771034 18.6889C0.771034 16.8821 2.18651 15.4667 3.99326 15.4667H6.57103C8.37778 15.4667 9.79325 16.8821 9.79325 18.6889C9.79325 18.8845 9.79325 19.1377 9.72421 19.3333H16.6175V15.9155C16.0421 15.7198 15.5242 15.3401 15.1329 14.8798C14.4885 14.0397 14.2353 13.0155 14.4194 11.9798C15.7889 5.02897 21.9111 0 29 0C36.0889 0 42.2111 5.02897 43.569 11.9222C43.7647 12.9579 43.5 13.9821 42.8556 14.8222C42.4643 15.271 41.9579 15.6623 41.371 15.8579V19.3333H48.3909C48.3218 19.1377 48.3218 18.8845 48.3218 18.6889C48.3218 16.8821 49.7373 15.4667 51.544 15.4667H54.1333C55.9401 15.4667 57.3556 16.8821 57.3556 18.6889C57.3556 19.7246 56.8377 20.6913 56.0667 21.2667V55.4222H56.7111C57.4246 55.4222 58 55.9976 58 56.7111C58 57.4246 57.4246 58 56.7111 58H1.28889C0.575397 58 0 57.4246 0 56.7111C0 55.9976 0.575397 55.4222 1.28889 55.4222ZM6.57103 18.0444H3.99326C3.67103 18.0444 3.34881 18.3667 3.34881 18.6889C3.34881 19.0111 3.67103 19.3333 3.99326 19.3333H6.57103C6.89325 19.3333 7.21548 19.0111 7.21548 18.6889C7.21548 18.3667 6.9623 18.0444 6.57103 18.0444ZM21.9111 39.9556H36.0889C37.1821 39.9556 38.0222 40.7956 38.0222 41.8889V55.4222H42.5333V42.0155C41.0488 41.6242 39.829 40.3353 39.5067 38.7242C38.471 33.7643 34.098 30.1508 29 30.1508C23.9135 30.1508 19.4599 33.7643 18.4933 38.7242C18.171 40.4044 16.9512 41.6242 15.4667 42.0155V55.4222H19.9778V41.8889C19.9778 40.7956 20.8179 39.9556 21.9111 39.9556ZM12.8889 39.0579C13.2111 39.4492 13.6599 39.6333 14.1087 39.6333H14.3044C15.0754 39.6333 15.7198 39.0579 15.9155 38.2179C17.2044 32.0266 22.6821 27.5845 28.931 27.5845C35.2488 27.5845 40.7266 32.0266 41.9464 38.2179C42.1421 39.0579 42.7865 39.6333 43.5575 39.6333H43.8107C44.3286 39.6333 44.7774 39.4377 45.0306 39.0579C45.3528 38.6667 45.4794 38.1603 45.3528 37.7C43.8222 29.8976 36.929 24.1667 28.931 24.1667C20.9329 24.1667 14.0397 29.8401 12.4976 37.7C12.4401 38.1488 12.5667 38.6667 12.8889 39.0579ZM29 21.5889C32.5444 21.5889 35.8933 22.5556 38.7933 24.2357V15.8579C37.7 15.4667 36.8599 14.5 36.6067 13.2111C35.8357 9.66667 32.671 7.08889 29 7.08889C25.329 7.08889 22.1643 9.66667 21.3933 13.2802C21.1401 14.5 20.3 15.4667 19.2067 15.927V24.3048C22.1067 22.5556 25.4556 21.5889 29 21.5889ZM40.9913 12.4401C39.8865 6.69762 34.869 2.57778 29 2.57778C23.131 2.57778 18.1135 6.69762 17.0087 12.4401C16.9397 12.8313 17.0778 13.0845 17.2044 13.2111C17.331 13.3377 17.5266 13.5333 17.9179 13.5333H18.0444C18.4933 13.5333 18.8155 13.2111 18.9421 12.7623C19.8397 7.99802 24.0976 4.51111 29 4.51111C33.9024 4.51111 38.1488 7.98651 39.1155 12.7623C39.1845 13.2111 39.5643 13.5333 40.0131 13.5333H40.1397C40.531 13.5333 40.7151 13.3377 40.8532 13.2111C40.9222 13.0845 41.1179 12.8198 40.9913 12.4401ZM54.1333 18.0444H51.5556C51.2333 18.0444 50.9111 18.3667 50.9111 18.6889C50.9111 19.0111 51.2333 19.3333 51.5556 19.3333H54.1333C54.4556 19.3333 54.7778 19.0111 54.7778 18.6889C54.7778 18.3667 54.4556 18.0444 54.1333 18.0444ZM53.4889 55.4222V21.9111H52.2V55.4222H53.4889ZM49.6222 21.9111H41.371V26.031C44.7198 28.8044 47.102 32.671 48.0111 37.1131C48.2643 38.3329 47.9421 39.6218 47.1135 40.5885C46.5956 41.2329 45.8937 41.6817 45.1802 41.9464V55.4107H49.6913V21.8996H49.6222V21.9111ZM35.4444 42.5333H30.2889V55.4222H35.4444V42.5333ZM27.7111 55.4222V42.5333H22.5556V55.4222H27.7111ZM12.8889 55.4222V42.0155C12.1179 41.7623 11.4734 41.302 10.9556 40.6575C10.1155 39.6909 9.79325 38.402 10.0579 37.1821C10.9556 32.671 13.3492 28.8044 16.698 26.1V21.9111H8.57341V55.4222H12.8889ZM5.92659 55.4222V21.9111H4.6377V55.4222H5.92659ZM29 9.66667C31.5087 9.66667 33.5111 11.669 33.5111 14.1778C33.5111 16.6865 31.5087 18.6889 29 18.6889C26.4913 18.6889 24.4889 16.6865 24.4889 14.1778C24.4889 11.669 26.4913 9.66667 29 9.66667ZM29 16.1111C30.0933 16.1111 30.9333 15.271 30.9333 14.1778C30.9333 13.0845 30.0933 12.2444 29 12.2444C27.9067 12.2444 27.0667 13.0845 27.0667 14.1778C27.0667 15.271 27.9067 16.1111 29 16.1111Z" fill="white"/>
</svg>
