<svg width="63" height="75" viewBox="0 0 63 75" fill="none" xmlns="http://www.w3.org/2000/svg">
<g clip-path="url(#clip0_207_1341)">
<path d="M54.4279 16.5578L31.5 39.4859L8.54631 16.5578L0.0516393 25.043V14.2624L8.54631 5.77717L31.5 28.7053L54.4537 5.77717L62.9484 14.2624V25.043L54.4279 16.5578ZM31.5516 10.7806L38.6779 17.8989L44.0742 12.5086L31.5516 0L18.9516 12.586L24.3479 17.9763L31.5516 10.7806ZM47.2758 27.3384L41.8795 32.7287L63 53.8257V43.0451L47.2758 27.3384ZM49.0574 25.533L62.9742 39.4343V28.6537L54.4537 20.1427L49.0574 25.533ZM0 43.0451V53.8257L21.1205 32.7287L15.7242 27.3384L0 43.0451ZM8.54631 20.1427L0.0258197 28.6537V39.4343L13.9426 25.533L8.54631 20.1427ZM22.618 62.8009L17.5574 69.2744L12.4967 62.8009H11.6963V74.9742H14.1492V68.6039L17.1701 72.3693H17.9705L20.9656 68.6039V75H23.4184V62.8267H22.618V62.8009ZM33.9012 75H36.5348L31.1902 62.8267H30.3639L25.0193 75H27.6529L28.3242 73.4525H33.2299L33.9012 75ZM32.3779 71.4151H29.1762L30.777 67.3659L32.3779 71.4151ZM38.1615 75H45.8557V72.782H40.6143V63.033H38.1615V75ZM47.6631 75H55.3574V72.782H50.116V63.033H47.6631V75Z" fill="#ffffff"/>
</g>
<defs>
<clipPath id="clip0_207_1341">
<rect width="63" height="75" fill="white"/>
</clipPath>
</defs>
</svg>
