<svg width="53" height="40" viewBox="0 0 53 40" fill="none" xmlns="http://www.w3.org/2000/svg">
<path fill-rule="evenodd" clip-rule="evenodd" d="M13.4989 1.41116C13.4989 2.19514 12.8901 2.82232 12.1448 2.82232C11.3996 2.82232 10.7908 2.19514 10.7908 1.41116C10.7908 0.627182 11.3996 0 12.1448 0C12.8901 0 13.4989 0.627182 13.4989 1.41116ZM52.8095 23.2685V13.7562L52.8095 13.7508C52.81 13.5979 52.818 11.4005 51.2454 9.71087C50.0803 8.45651 48.3903 7.82933 46.2175 7.82933H44.6849C44.1601 7.82933 43.7402 8.26835 43.7402 8.81191C43.7402 9.35547 44.1601 9.7945 44.6849 9.7945H46.2175C47.8445 9.7945 49.0726 10.2231 49.8809 11.0698C50.9305 12.1778 50.9305 13.6935 50.9305 13.7248V23.2789C50.9305 23.2894 50.9305 24.8155 49.8809 25.9235C49.0831 26.7702 47.8445 27.1988 46.2175 27.1988H39.6675L39.7829 33.0107L35.8676 27.1988H27.911C26.284 27.1988 25.0559 26.7702 24.2477 25.9235C23.198 24.8155 23.198 23.2998 23.198 23.2685V21.7737H24.8985C27.0608 21.7737 28.7508 21.136 29.9264 19.8921C31.5324 18.1778 31.501 15.9513 31.4905 15.8782V9.7945H36.5184C37.0433 9.7945 37.4631 9.35547 37.4631 8.81191C37.4631 8.26835 37.0433 7.82933 36.5184 7.82933H31.4905V6.35545L31.4905 6.35007C31.491 6.19712 31.499 3.99976 29.9264 2.31012C28.7613 1.05576 27.0713 0.428575 24.8985 0.428575H16.2806C15.7557 0.428575 15.3359 0.867602 15.3359 1.41116C15.3359 1.95472 15.7557 2.39375 16.2806 2.39375H24.8985C26.5255 2.39375 27.7536 2.82232 28.5618 3.66902C29.6115 4.77704 29.6115 6.29273 29.6115 6.32409V7.81887H27.911C25.7487 7.81887 24.0587 8.45651 22.8831 9.70042C21.2771 11.4147 21.3086 13.6517 21.3191 13.7144V19.7876H16.9524L13.0266 25.6099L13.142 19.7981H6.59204C4.96503 19.7981 3.73691 19.3695 2.92865 18.5228C1.87897 17.4148 1.87897 15.8991 1.87897 15.8677V6.30318L1.87897 6.30287C1.87889 6.27611 1.87426 4.79172 2.90766 3.67947C3.70542 2.82232 4.94404 2.39375 6.58154 2.39375H8.11408C8.63892 2.39375 9.05879 1.95472 9.05879 1.41116C9.05879 0.867602 8.63892 0.428575 8.11408 0.428575H6.59204C4.4297 0.428575 2.73971 1.06621 1.56407 2.31012C-0.0104777 4.00189 -0.000501269 6.20267 3.28608e-05 6.3205L4.54119e-05 6.32409V15.8364L3.07996e-05 15.8417C-0.000523896 15.9947 -0.00849324 18.192 1.56407 19.8817C2.72921 21.136 4.4192 21.7632 6.59204 21.7632H11.2106L11.0112 31.9968L17.9181 21.7632H21.3086V23.2371L21.3085 23.2425C21.308 23.3954 21.3 25.5928 22.8726 27.2824C24.0377 28.5368 25.7277 29.164 27.9005 29.164H34.8809L41.7878 39.3975L41.5884 29.164H46.207C48.3693 29.164 50.0593 28.5263 51.2349 27.2824C52.82 25.5906 52.81 23.3896 52.8095 23.272L52.8095 23.2685ZM23.198 13.7039C23.198 13.6935 23.198 12.1987 24.2267 11.0907C25.0244 10.2335 26.263 9.80495 27.9005 9.80495H29.601V15.8886V15.8889C29.6011 15.9157 29.6057 17.4 28.5723 18.5019C27.7746 19.359 26.536 19.7876 24.8985 19.7876H23.198V13.7039ZM40.6647 10.2231C41.4099 10.2231 42.0188 9.59589 42.0188 8.81191C42.0188 8.02794 41.4099 7.40075 40.6647 7.40075C39.9194 7.40075 39.3106 8.02794 39.3106 8.81191C39.3106 9.59589 39.9194 10.2231 40.6647 10.2231Z" fill="#677282"/>
</svg>
